<?xml version="1.0" encoding="utf-8"?>
<!-- Generator: Adobe Illustrator 17.1.0, SVG Export Plug-In . SVG Version: 6.00 Build 0)  -->
<!DOCTYPE svg PUBLIC "-//W3C//DTD SVG 1.1//EN" "http://www.w3.org/Graphics/SVG/1.1/DTD/svg11.dtd">
<svg version="1.1" id="Layer_1" xmlns="http://www.w3.org/2000/svg" xmlns:xlink="http://www.w3.org/1999/xlink" x="0px" y="0px"
	 viewBox="0 0 250 150" enable-background="new 0 0 250 150" xml:space="preserve">
<path fill="#670032" d="M125.307,85.615c18.363,0,33.25-14.878,33.25-33.232s-14.887-33.232-33.25-33.232
	s-33.25,14.878-33.25,33.232S106.944,85.615,125.307,85.615"/>
<path fill="#AC8865" d="M241.161,114.327h-8.29v-7.225h7.03v-1.289h-7.03v-7.001h7.674v-1.344h-9.801v18.203h10.417V114.327z
	 M219.317,97.468h-1.541v14.339l0.085,0.672l-9.299-15.011h-2.212v18.203h1.54v-14.647l-0.14-0.868h0.027l9.69,15.515h1.849V97.468z
	 M196.408,114.327h-8.29v-7.225h7.03v-1.289h-7.03v-7.001h7.674v-1.344h-9.801v18.203h10.417V114.327z M188.063,92.063l2.94,3.781
	l1.12-0.224l-2.324-4.004L188.063,92.063z M175.04,106.206h-5.517v1.205h3.725v4.116c-0.168,0.589-0.98,3.025-4.285,3.025
	c-3.389,0-5.518-2.605-5.518-7.926c0-5.293,1.904-8.01,6.105-8.01c2.465,0,4.873,1.485,4.873,1.485l0.252-1.344
	c0,0-2.464-1.541-5.349-1.541c-5.236,0-8.149,3.501-8.149,9.411c0,5.853,2.716,9.326,7.477,9.326c2.633,0,4.061-1.177,4.817-2.269
	l0.532,1.989h1.036V106.206z M145.382,97.468l-6.133,18.203h1.484l1.904-5.601h7.141l1.904,5.601h2.213l-6.022-18.203H145.382z
	 M146.25,99.092l3.165,9.83h-6.386L146.25,99.092z M132.108,114.327h-8.094V97.468h-2.129v18.203h10.223V114.327z M112.756,114.327
	h-8.094V97.468h-2.129v18.203h10.223V114.327z M92.395,106.597c0-5.769-2.913-9.382-7.842-9.382c-4.901,0-7.785,3.614-7.785,9.382
	c0,5.797,2.884,9.355,7.785,9.355C89.482,115.952,92.395,112.395,92.395,106.597 M90.127,106.597c0,5.237-1.989,8.01-5.574,8.01
	c-3.556,0-5.517-2.773-5.517-8.01c0-5.209,1.989-8.037,5.517-8.037C88.111,98.561,90.127,101.389,90.127,106.597 M67.582,100.101
	l0.252-1.344c0,0-2.464-1.541-5.348-1.541c-4.761,0-7.842,3.697-7.842,9.523c0,5.741,2.94,9.214,7.982,9.214
	c4.313,0,6.078-3.249,6.078-3.249l-0.784-0.895c0,0-1.681,2.745-5.041,2.745c-3.669,0-5.965-2.549-5.965-7.87
	c0-5.378,2.241-8.067,5.797-8.067C65.174,98.616,67.582,100.101,67.582,100.101 M38.609,114.327h-8.29v-7.225h7.03v-1.289h-7.03
	v-7.001h7.674v-1.344h-9.802v18.203h10.418V114.327z M19.062,114.327h-8.094V97.468H8.839v18.203h10.223V114.327z"/>
<path fill="#B08A80" d="M192.074,124.324h-1.129l-3.005,4.001l-1.819-4.001h-1.646l2.354,4.805l-3.847,4.766h1.148l3.235-4.135
	l1.99,4.135h1.627l-2.507-4.996L192.074,124.324z M180.428,124.956c1.187,0,1.819,0.708,1.819,1.627
	c0,2.068-2.335,2.259-4.078,2.259h-0.823C177.673,126.411,178.783,124.956,180.428,124.956 M182.324,132.115
	c0,0-0.804,1.13-2.507,1.13c-1.494,0-2.565-0.861-2.565-2.852c0-0.287,0-0.554,0.019-0.823h0.861c2.087,0,5.36-0.21,5.36-2.91
	c0-1.378-1.034-2.527-2.891-2.527c-2.852,0-4.785,2.431-4.785,6.088c0,2.584,1.588,3.867,3.751,3.867
	c2.317,0,3.255-1.513,3.255-1.513L182.324,132.115z M175.811,119.501l-1.397,0.076l-2.01,14.319h1.397L175.811,119.501z
	 M167.921,125.071c1.417,0,2.278,0.861,2.278,2.814c0,3.292-1.206,5.282-3.56,5.282c-1.283,0-1.819-0.727-1.895-0.842l0.842-5.972
	C165.72,126.162,166.505,125.071,167.921,125.071 M162.466,138.719l1.378-0.038l0.766-5.513h0.019c0,0,0.574,0.92,2.335,0.92
	c3.005,0,4.709-2.738,4.709-6.145c0-2.412-1.244-3.809-3.177-3.809c-1.838,0-2.718,1.167-2.852,1.359l-0.02-1.167h-1.148
	L162.466,138.719z M149.958,133.896h1.397l1.073-7.733c0.114-0.134,0.957-1.034,2.22-1.034c0.766,0,1.207,0.249,1.207,1.225
	c0,0.191-0.02,0.42-0.058,0.67l-0.957,6.872h1.378l0.996-7.045l0.057-0.631c0.134-0.173,0.977-1.091,2.221-1.091
	c0.784,0,1.244,0.249,1.244,1.244c0,0.191-0.019,0.402-0.057,0.651l-0.977,6.872h1.398l0.976-7.026
	c0.038-0.306,0.057-0.574,0.057-0.823c0-1.397-0.67-1.914-2.01-1.914c-1.704,0-2.718,0.976-2.928,1.187
	c-0.211-0.843-0.843-1.187-1.877-1.187c-1.607,0-2.641,0.996-2.833,1.187l-0.038-0.996h-1.148L149.958,133.896z M145.583,124.975
	c1.493,0,2.182,1.091,2.182,2.851c0,3.446-1.148,5.418-3.274,5.418c-1.513,0-2.201-1.091-2.201-2.833
	C142.29,126.947,143.439,124.975,145.583,124.975 M149.201,128.076c0-2.47-1.225-3.944-3.465-3.944c-3.177,0-4.881,2.45-4.881,6.011
	c0,2.488,1.225,3.944,3.465,3.944C147.401,134.087,149.201,131.656,149.201,128.076 M140.638,125.817l0.25-0.784
	c0,0-1.073-0.9-2.604-0.9c-3.311,0-4.938,2.431-4.938,6.049c0,2.584,1.473,3.905,3.732,3.905c2.316,0,3.14-1.551,3.14-1.551
	l-0.556-0.402c0,0-0.689,1.11-2.354,1.11c-1.398,0-2.489-0.823-2.489-2.891c0-3.33,1.015-5.378,3.581-5.378
	C139.662,124.975,140.638,125.817,140.638,125.817 M127.105,126.832c0,2.24-0.938,3.33-2.488,3.33c-1.148,0-1.8-0.707-1.8-2.01
	c0-2.488,1.187-3.197,2.527-3.197C126.397,124.956,127.105,125.434,127.105,126.832 M124.004,133.876
	c1.78,0,2.814,0.479,2.814,1.761c0,1.531-1.091,2.374-3.044,2.374c-1.723,0-2.833-0.613-2.833-2.028
	c0-1.341,0.823-2.011,1.665-2.298C122.99,133.819,123.469,133.876,124.004,133.876 M125.497,124.133c-2.124,0-4.02,1.071-4.02,3.944
	c0,1.11,0.46,1.933,1.225,2.393c-0.479,0.306-1.073,0.861-1.073,1.78c0,0.403,0.096,0.708,0.287,0.957
	c-0.976,0.345-2.028,1.187-2.028,2.872c0,1.818,1.34,2.794,3.771,2.794c2.89,0,4.422-1.436,4.422-3.598
	c0-1.761-1.302-2.604-3.868-2.604c-1.014,0-1.588-0.249-1.588-0.861c0-0.536,0.44-0.861,0.766-1.034
	c0.344,0.096,0.747,0.154,1.168,0.154c2.335,0,3.885-1.437,3.885-4.021c0-0.766-0.191-1.34-0.536-1.78l1.283-0.039l0.076-0.747
	l-2.488-0.019h-0.019C126.378,124.19,125.957,124.133,125.497,124.133 M112.048,133.896h1.398l1.09-7.792
	c0.039-0.037,0.881-0.957,2.394-0.957c1.091,0,1.741,0.498,1.741,1.665c0,0.173,0,0.364-0.039,0.574
	c-0.037,0.249-0.919,6.509-0.919,6.509h1.397l0.92-6.681c0.038-0.25,0.057-0.498,0.057-0.708c0-1.608-0.957-2.374-2.545-2.374
	c-1.953,0-2.814,0.957-2.929,1.071l-0.077-0.88h-1.148L112.048,133.896z M110.48,120.955c-0.23,0.173-0.344,0.46-0.344,0.728
	c0,0.191,0.057,0.363,0.173,0.497c0.114,0.134,0.306,0.21,0.516,0.21c0.211,0,0.421-0.076,0.613-0.21
	c0.211-0.21,0.326-0.479,0.326-0.747c0-0.172-0.038-0.363-0.153-0.497c-0.134-0.134-0.326-0.191-0.536-0.191
	C110.863,120.745,110.653,120.802,110.48,120.955 M111.246,124.324h-1.378l-1.34,9.571h1.378L111.246,124.324z M106.534,126.832
	c0,2.24-0.937,3.33-2.488,3.33c-1.148,0-1.8-0.707-1.8-2.01c0-2.488,1.187-3.197,2.527-3.197
	C105.825,124.956,106.534,125.434,106.534,126.832 M103.433,133.876c1.781,0,2.814,0.479,2.814,1.761
	c0,1.531-1.091,2.374-3.044,2.374c-1.723,0-2.833-0.613-2.833-2.028c0-1.341,0.823-2.011,1.665-2.298
	C102.418,133.819,102.897,133.876,103.433,133.876 M104.926,124.133c-2.125,0-4.021,1.071-4.021,3.944
	c0,1.11,0.46,1.933,1.225,2.393c-0.479,0.306-1.073,0.861-1.073,1.78c0,0.403,0.096,0.708,0.287,0.957
	c-0.976,0.345-2.028,1.187-2.028,2.872c0,1.818,1.34,2.794,3.771,2.794c2.891,0,4.422-1.436,4.422-3.598
	c0-1.761-1.302-2.604-3.867-2.604c-1.015,0-1.59-0.249-1.59-0.861c0-0.536,0.441-0.861,0.766-1.034
	c0.345,0.096,0.747,0.154,1.168,0.154c2.335,0,3.885-1.437,3.885-4.021c0-0.766-0.191-1.34-0.536-1.78l1.283-0.039l0.077-0.747
	l-2.489-0.019h-0.019C105.806,124.19,105.385,124.133,104.926,124.133 M94.97,133.149c-1.397,0-2.258-0.919-2.258-2.814
	c0-3.158,1.187-5.283,3.56-5.283c1.398,0,1.857,0.957,1.877,1.015l-0.843,5.799C97.152,132.096,96.387,133.149,94.97,133.149
	 M99.775,124.324h-1.11l-0.326,0.823c-0.057-0.114-0.574-1.014-2.24-1.014c-3.101,0-4.843,2.737-4.843,6.106
	c0,2.45,1.283,3.848,3.254,3.848c1.761,0,2.547-1.015,2.738-1.302l0.076,1.111h1.111L99.775,124.324z M90.193,128.134h-4.365
	l-0.134,0.9h4.384L90.193,128.134z M83.963,120.955c-0.229,0.173-0.344,0.46-0.344,0.728c0,0.191,0.057,0.363,0.173,0.497
	c0.114,0.134,0.306,0.21,0.517,0.21c0.21,0,0.42-0.076,0.612-0.21c0.211-0.21,0.326-0.479,0.326-0.747
	c0-0.172-0.039-0.363-0.153-0.497c-0.134-0.134-0.326-0.191-0.536-0.191C84.346,120.745,84.136,120.802,83.963,120.955
	 M84.729,124.324h-1.377l-1.341,9.571h1.378L84.729,124.324z M82.103,124.324h-2.45l0.421-3.024h-0.861l-0.958,3.043l-0.994,0.116
	l-0.134,0.804h0.996l-0.843,6.068c-0.057,0.344-0.077,0.651-0.077,0.919c0,1.321,0.574,1.838,1.724,1.838
	c1.244,0,1.818-0.364,1.818-0.364l0.019-0.766c0,0-0.517,0.21-1.283,0.21c-0.574,0-0.843-0.287-0.843-1.148
	c0-0.287,0.02-0.631,0.077-1.033l0.804-5.723h2.45L82.103,124.324z M67.655,133.896h1.397l1.091-7.792
	c0.039-0.037,0.88-0.957,2.393-0.957c1.091,0,1.742,0.498,1.742,1.665c0,0.173,0,0.364-0.038,0.574
	c-0.038,0.249-0.919,6.509-0.919,6.509h1.397l0.919-6.681c0.039-0.25,0.057-0.498,0.057-0.708c0-1.608-0.957-2.374-2.545-2.374
	c-1.953,0-2.814,0.957-2.928,1.071l-0.077-0.88h-1.148L67.655,133.896z M62.082,133.149c-1.397,0-2.258-0.919-2.258-2.814
	c0-3.158,1.187-5.283,3.561-5.283c1.397,0,1.856,0.957,1.876,1.015l-0.843,5.799C64.265,132.096,63.499,133.149,62.082,133.149
	 M66.887,124.324h-1.11l-0.326,0.823c-0.057-0.114-0.574-1.014-2.24-1.014c-3.101,0-4.843,2.737-4.843,6.106
	c0,2.45,1.283,3.848,3.255,3.848c1.761,0,2.545-1.015,2.737-1.302l0.077,1.111h1.11L66.887,124.324z"/>
<path fill="#FFFFFF" d="M127.507,80.209c-8.106-0.077-13.076-4.664-9.788-14.681c5.582-17.51,25.233-31.808,33.262-30.585
	c4.205,0.688,3.899,4.97,2.064,8.487c-3.747,7.188-11.164,11.47-19.116,12.158c-2.064,0.153-2.829,2.6-0.382,2.37
	c7.049-0.634,20.912-8.287,23.275-16.429c-0.987-2.862-2.348-5.548-4.033-7.997c-0.533-0.18-1.099-0.332-1.732-0.424
	c-14.987-2.294-33.185,15.14-37.084,31.044c-2.982,12.387,4.205,17.892,13.534,17.968c7.092,0.11,15.64-2.327,22.843-7.76
	c1.318-1.499,2.507-3.114,3.542-4.833C146.472,77.029,135.427,80.475,127.507,80.209z"/>
<path fill="#FFFFFF" d="M95.798,54.353c1.684,0.561,3.423,1.571,5.275,2.805c-1.347,2.974-2.806,5.107-4.152,5.219
	c-0.393,0-0.618,0.617,0,0.729c1.683,0.281,3.647-1.852,5.499-5.05c6.228,4.489,13.523,10.83,23.118,10.044
	c4.433-0.336,7.015-2.918,7.071-5.611c0.112-1.403-0.056-2.862-0.842-4.489c-0.449-0.898-1.571-0.786-1.122,0.224
	c2.357,4.321-2.862,6.678-6.285,6.958c-8.136,0.674-15.319-4.096-21.379-8.024c1.178-2.02,2.244-4.321,3.198-6.565
	c9.259-3.255,20.145-12.065,20.145-21.884c0-6.622-6.958-9.428-13.411-2.133c-2.301,2.581-4.152,7.8-6.004,13.748
	c-0.505,1.571-1.628,5.668-3.087,9.988l-1.234,0.337c-0.729,0.224-1.122,1.066,0.112,0.842c0.169,0,0.449-0.056,0.674-0.169
	c-0.562,1.796-1.235,3.367-1.908,4.938l-2.974-1.851c-0.505-0.281-1.403-0.73-1.964-0.954c0.449-0.225,2.076-0.337,2.581-0.618
	c0.954-0.673,0-0.673-0.337-0.505c-2.525,0.954-5.218-0.28-6.06,0c-0.299,0.088-0.531,0.212-0.732,0.348
	c0.007,0.786,0.045,1.564,0.106,2.336c0.042,0.02,0.076,0.049,0.121,0.066C92.712,55.194,94.395,54.914,95.798,54.353z
	 M109.49,41.895c1.459-4.601,4.714-18.517,11.335-18.517c3.03,0,3.591,3.142,2.974,6.453c-1.683,8.81-8.922,15.543-17.002,19.191
	C108.087,45.992,108.985,43.298,109.49,41.895z"/>
</svg>
